<?xml version="1.0" standalone="no"?>
<!DOCTYPE svg PUBLIC "-//W3C//DTD SVG 20010904//EN"
 "http://www.w3.org/TR/2001/REC-SVG-20010904/DTD/svg10.dtd">
<svg version="1.0" xmlns="http://www.w3.org/2000/svg"
 width="555.000000pt" height="449.000000pt" viewBox="0 0 555.000000 449.000000"
 preserveAspectRatio="xMidYMid meet">

<g transform="translate(0.000000,449.000000) scale(0.100000,-0.100000)"
fill="#000000" stroke="none">
<path d="M2213 4203 c-10 -4 -12 -79 -11 -336 l3 -332 5 325 c4 280 7 325 20
325 11 0 14 -9 13 -35 -2 -30 -2 -32 7 -12 9 22 20 25 75 23 l30 -2 -25 14
c-14 7 -24 19 -22 25 2 12 -69 16 -95 5z"/>
<path d="M2801 4206 c2 -2 31 -6 64 -9 39 -4 51 -3 35 2 -25 9 -107 15 -99 7z"/>
<path d="M2476 4181 c-9 -14 11 -41 31 -41 8 0 13 8 11 18 -3 16 8 17 127 14
72 -2 144 -6 160 -9 22 -4 27 -2 20 6 -16 16 -340 28 -349 12z"/>
<path d="M3005 4170 c3 -5 23 -10 43 -9 33 1 34 2 12 9 -36 12 -62 12 -55 0z"/>
<path d="M2380 4150 c34 -11 60 -11 35 0 -11 5 -29 8 -40 8 -16 0 -15 -2 5 -8z"/>
<path d="M2955 4139 c125 -27 161 -33 155 -27 -12 13 -164 48 -203 47 -35 -1
-27 -4 48 -20z"/>
<path d="M3105 4151 c11 -5 67 -23 125 -42 121 -38 218 -77 241 -96 8 -7 21
-13 29 -13 17 0 83 -41 76 -47 -4 -5 -108 39 -158 67 -10 6 -27 10 -37 10 -11
0 -22 4 -25 9 -7 11 -154 57 -206 65 -25 4 -21 1 15 -10 287 -88 588 -251 782
-423 233 -206 455 -525 544 -780 l33 -95 -29 -20 c-164 -117 -245 -265 -245
-447 0 -196 104 -376 261 -450 26 -13 50 -31 53 -42 12 -48 -92 -364 -174
-527 -17 -33 -28 -66 -24 -73 4 -7 4 -9 -1 -5 -4 4 -27 -24 -51 -62 -51 -83
-138 -200 -200 -269 -25 -28 -43 -55 -39 -61 4 -6 1 -9 -6 -8 -7 2 -14 -4 -14
-12 0 -8 -6 -14 -11 -13 -6 1 -46 -29 -88 -67 -43 -38 -87 -72 -98 -76 -13 -4
-32 3 -55 19 -28 20 -38 23 -48 14 -14 -13 -10 -27 6 -27 6 0 7 5 3 12 -5 7
-3 8 5 4 7 -5 10 -11 7 -14 -3 -3 2 -14 11 -24 19 -21 25 -58 9 -52 -6 2 -24
-7 -41 -21 l-30 -26 35 17 35 17 -24 -26 c-13 -14 -39 -33 -57 -42 -19 -9 -34
-19 -34 -24 0 -9 -71 -44 -77 -38 -5 6 51 47 64 47 10 1 53 36 53 44 0 4 -17
-5 -38 -18 -53 -33 -244 -128 -315 -156 -70 -28 -68 -39 4 -16 28 10 53 15 56
12 2 -2 -6 -7 -19 -11 -13 -4 -25 -12 -29 -16 -3 -5 -35 -19 -72 -32 -82 -29
-100 -43 -26 -21 80 24 197 78 176 82 -29 6 -19 19 32 41 59 25 65 26 58 7 -4
-11 -1 -13 11 -9 32 11 36 16 16 24 -18 7 -18 7 0 14 11 5 21 3 25 -4 8 -13
184 100 296 191 272 220 514 566 628 898 94 275 117 418 117 716 0 228 -9 308
-51 460 -12 43 -25 93 -29 109 -23 90 -157 371 -220 466 -46 68 -199 259 -207
259 -3 0 -3 -9 0 -20 3 -12 1 -18 -5 -14 -5 3 -7 15 -5 26 7 25 -32 69 -153
173 -227 195 -480 337 -754 424 -90 28 -164 43 -111 22z m520 -222 c11 -17 -1
-21 -15 -4 -8 9 -8 15 -2 15 6 0 14 -5 17 -11z m75 -43 c7 -9 8 -16 3 -16 -14
0 -53 30 -53 41 0 12 32 -4 50 -25z m75 -50 c11 -8 15 -16 9 -16 -6 0 -24 12
-40 26 -30 26 -7 19 31 -10z m60 -36 c3 -5 -1 -10 -9 -10 -8 0 -18 5 -21 10
-3 6 1 10 9 10 8 0 18 -4 21 -10z m61 -57 c-7 -7 -26 7 -26 19 0 6 6 6 15 -2
9 -7 13 -15 11 -17z m24 -23 c0 -5 -2 -10 -4 -10 -3 0 -8 5 -11 10 -3 6 -1 10
4 10 6 0 11 -4 11 -10z m55 -40 c16 -17 16 -20 3 -15 -9 4 -19 13 -22 21 -7
19 -2 18 19 -6z m100 -90 c3 -5 2 -10 -4 -10 -5 0 -13 5 -16 10 -3 6 -2 10 4
10 5 0 13 -4 16 -10z m463 -882 c6 -7 20 -51 32 -98 21 -78 22 -109 23 -391 0
-168 -3 -311 -7 -317 -11 -19 -100 33 -161 93 -28 28 -68 84 -90 125 -39 74
-40 76 -40 185 0 144 25 221 99 309 47 55 108 106 126 106 4 0 12 -6 18 -12z
m-251 -260 c-3 -8 -6 -5 -6 6 -1 11 2 17 5 13 3 -3 4 -12 1 -19z m0 -260 c-3
-8 -6 -5 -6 6 -1 11 2 17 5 13 3 -3 4 -12 1 -19z m-322 -1478 c-10 -11 -20
-18 -23 -16 -5 6 21 35 32 36 5 0 1 -9 -9 -20z m-110 -70 c19 -1 18 -2 -5 -21
-24 -20 -25 -20 -29 -3 -1 11 -10 28 -20 38 -16 19 -15 19 9 3 13 -9 34 -17
45 -17z"/>
<path d="M2450 4130 c20 -13 40 -13 40 0 0 6 -12 10 -27 10 -22 0 -25 -2 -13
-10z"/>
<path d="M2573 4123 c4 -6 37 -21 74 -33 38 -11 75 -23 83 -26 34 -12 -28 21
-74 38 -76 29 -90 33 -83 21z"/>
<path d="M2565 4090 c27 -12 43 -12 25 0 -8 5 -22 9 -30 9 -10 0 -8 -3 5 -9z"/>
<path d="M2244 3565 l1 -520 117 -5 c65 -3 128 -2 140 2 13 3 -35 6 -105 7
-99 1 -129 4 -133 15 -3 7 -9 240 -13 517 l-8 504 1 -520z"/>
<path d="M2620 4070 c8 -5 20 -10 25 -10 6 0 3 5 -5 10 -8 5 -19 10 -25 10 -5
0 -3 -5 5 -10z"/>
<path d="M2670 4050 c8 -5 20 -10 25 -10 6 0 3 5 -5 10 -8 5 -19 10 -25 10 -5
0 -3 -5 5 -10z"/>
<path d="M2784 4036 c11 -9 24 -16 30 -16 12 0 7 5 -24 19 -24 11 -24 11 -6
-3z"/>
<path d="M2795 3987 c113 -61 265 -159 365 -235 l85 -64 -50 51 c-27 28 -53
51 -58 51 -4 0 -27 14 -50 30 -72 52 -144 99 -204 132 -127 69 -145 78 -156
78 -7 0 24 -20 68 -43z"/>
<path d="M2837 4009 c7 -7 15 -10 18 -7 3 3 -2 9 -12 12 -14 6 -15 5 -6 -5z"/>
<path d="M2960 3946 c0 -3 19 -18 43 -32 23 -15 44 -30 47 -34 6 -8 40 -21 40
-15 0 2 -24 19 -52 38 -75 47 -78 49 -78 43z"/>
<path d="M3115 3840 c10 -11 20 -20 23 -20 3 0 -3 9 -13 20 -10 11 -20 20 -23
20 -3 0 3 -9 13 -20z"/>
<path d="M3250 3686 c0 -2 8 -10 18 -17 15 -13 16 -12 3 4 -13 16 -21 21 -21
13z"/>
<path d="M2745 3661 c-6 -10 -55 -158 -55 -166 0 -3 4 -5 9 -5 9 0 42 74 39
88 0 4 1 14 5 22 7 19 15 70 11 70 -1 0 -5 -4 -9 -9z"/>
<path d="M3319 3614 c18 -21 53 -58 76 -81 59 -58 141 -161 209 -262 31 -46
56 -77 56 -68 0 9 -5 19 -11 22 -5 4 -14 17 -20 28 -5 12 -25 42 -43 67 -36
46 -44 70 -25 70 5 0 7 5 3 11 -4 8 -9 7 -15 -2 -7 -11 -15 -8 -34 14 -14 15
-25 32 -25 38 0 16 18 10 34 -13 9 -12 16 -18 16 -12 0 6 -9 23 -20 36 -10 14
-16 28 -13 32 3 3 29 6 57 6 89 0 162 -53 195 -143 13 -34 23 -137 12 -118 -6
10 -10 9 -15 -5 -4 -10 -2 -20 4 -24 7 -4 4 -15 -9 -31 -11 -14 -21 -41 -23
-60 l-3 -34 -18 37 c-10 20 -22 40 -27 43 -5 3 14 -41 42 -97 28 -57 61 -132
74 -168 13 -36 23 -54 23 -40 -2 40 1 46 11 30 13 -20 13 -73 0 -65 -5 3 -3
-16 5 -42 8 -26 15 -58 15 -70 0 -12 5 -34 12 -50 l11 -28 7 30 c6 29 6 28 13
-14 5 -30 4 -47 -4 -52 -8 -5 -9 -19 -3 -45 6 -30 9 -34 12 -16 5 31 22 17 22
-19 0 -18 -4 -28 -10 -24 -7 4 -10 -59 -9 -182 0 -114 4 -180 9 -168 7 16 9
11 9 -20 0 -22 -4 -49 -9 -60 -7 -17 -9 -16 -9 9 -1 16 -4 26 -8 23 -3 -4 -6
-39 -5 -79 0 -42 -3 -65 -7 -54 -4 11 -10 15 -14 9 -13 -21 -30 -100 -29 -138
2 -54 -7 -77 -19 -50 -6 15 -8 12 -6 -15 1 -24 -2 -35 -12 -35 -7 0 -18 -10
-22 -23 -6 -15 -5 -21 1 -17 18 11 11 -21 -16 -71 -36 -69 -45 -78 -56 -62 -6
9 -8 7 -7 -7 2 -34 -1 -45 -12 -45 -6 0 -8 7 -5 17 4 10 5 15 3 13 -17 -17
-77 -102 -87 -121 -13 -24 -13 -24 9 -5 11 11 21 24 21 31 0 6 11 22 25 35 14
13 25 20 25 17 0 -12 -83 -131 -107 -154 -13 -12 -23 -25 -23 -29 0 -21 70 63
137 164 106 161 154 268 216 492 73 260 46 638 -66 930 -14 36 -42 104 -62
151 l-37 87 36 52 c31 44 36 60 36 107 0 74 -16 124 -54 165 -57 63 -91 80
-164 84 -61 2 -62 2 -17 -5 54 -7 117 -34 136 -57 16 -20 -1 -17 -39 6 -66 41
-171 35 -182 -9 -5 -20 -13 -15 -79 58 -81 88 -155 149 -92 75z m444 -195 c16
-28 26 -53 23 -57 -4 -3 -9 4 -13 16 -3 12 -9 22 -14 22 -5 0 -9 6 -9 14 0 7
-7 19 -15 26 -16 13 -20 30 -7 30 4 0 20 -23 35 -51z m6 -380 c17 -48 13 -57
-9 -24 -21 32 -26 55 -11 55 5 0 14 -14 20 -31z m41 -109 c0 -11 -2 -20 -4
-20 -2 0 -6 9 -9 20 -3 11 -1 20 4 20 5 0 9 -9 9 -20z m47 -172 c-3 -7 -5 -2
-5 12 0 14 2 19 5 13 2 -7 2 -19 0 -25z m60 -355 c-3 -10 -5 -4 -5 12 0 17 2
24 5 18 2 -7 2 -21 0 -30z m0 -220 c-3 -10 -5 -4 -5 12 0 17 2 24 5 18 2 -7 2
-21 0 -30z m-60 -315 c-3 -8 -6 -5 -6 6 -1 11 2 17 5 13 3 -3 4 -12 1 -19z"/>
<path d="M1700 3594 c0 -3 8 -29 17 -57 13 -39 19 -46 21 -29 4 27 -16 92 -29
92 -5 0 -9 -3 -9 -6z"/>
<path d="M3452 3529 c16 -11 48 -12 48 -1 0 4 -14 7 -31 8 -20 1 -26 -2 -17
-7z"/>
<path d="M3570 3375 c0 -4 14 -23 30 -42 17 -18 30 -38 30 -44 0 -5 16 -34 35
-64 23 -37 41 -55 55 -55 11 0 20 5 20 10 0 6 -8 10 -18 10 -12 0 -35 27 -66
79 -44 73 -86 125 -86 106z"/>
<path d="M1200 3351 c0 -14 24 -39 200 -202 91 -84 172 -163 180 -176 13 -20
12 -24 -10 -48 -13 -14 -67 -54 -120 -90 -159 -106 -187 -129 -226 -179 l-37
-49 26 -51 c15 -28 42 -76 61 -106 62 -98 65 -96 -114 -90 -293 9 -374 7 -378
-11 -5 -26 93 -31 327 -19 159 8 209 7 230 -3 22 -10 150 -183 169 -227 5 -13
103 -161 243 -370 149 -221 170 -249 184 -243 8 3 15 1 15 -5 0 -6 -5 -12 -12
-14 -8 -3 0 -21 22 -51 35 -50 48 -61 30 -26 -7 11 -9 26 -7 33 3 7 1 19 -5
27 -8 11 -9 10 -4 -3 3 -10 1 -18 -5 -18 -15 0 -24 33 -11 38 9 3 9 9 0 25
-15 30 -70 92 -79 90 -4 -1 -5 5 -3 15 2 9 -8 31 -23 49 -16 17 -50 66 -76
107 -29 46 -52 74 -59 70 -7 -5 -8 -2 -3 5 4 8 -5 30 -22 54 -59 84 -76 122
-70 163 6 45 49 205 66 247 14 37 33 30 46 -15 11 -41 25 -60 25 -35 0 8 5 17
11 19 9 3 9 10 0 26 -7 13 -15 20 -20 18 -12 -8 1 58 13 66 6 4 21 8 34 8 12
0 22 5 22 10 0 16 37 12 55 -6 10 -10 46 -20 93 -26 42 -5 90 -13 106 -18 28
-9 28 -9 11 10 -17 19 -17 20 6 29 19 7 8 10 -54 16 -43 4 -81 5 -84 1 -4 -3
9 -6 28 -7 19 0 43 -4 54 -9 18 -7 19 -8 3 -15 -10 -4 -26 -4 -35 0 -10 4 -38
9 -62 11 -47 5 -69 14 -33 14 11 0 24 5 27 10 4 6 -11 10 -39 10 -49 0 -65 12
-45 36 11 14 9 15 -17 12 -16 -1 -28 -8 -27 -14 3 -17 -28 -42 -57 -46 -14 -2
-29 -13 -35 -25 -14 -33 -23 -28 -27 15 -3 34 -8 40 -63 69 -33 18 -78 38
-100 44 -64 17 -225 93 -225 105 0 19 28 25 160 35 69 5 152 14 186 19 33 6
99 10 147 10 47 0 89 5 92 10 3 6 15 10 26 10 11 0 22 7 25 15 4 8 14 15 24
15 23 0 60 33 60 54 0 9 -12 28 -27 41 -16 13 -25 27 -20 31 4 4 20 -5 37 -21
l29 -28 34 26 c19 14 57 33 85 42 29 10 52 21 52 25 0 12 -79 -14 -122 -40
-48 -28 -66 -22 -140 51 -34 32 -69 61 -80 65 -10 3 -17 11 -15 17 2 8 59 11
180 12 97 0 177 3 177 8 0 9 19 8 -175 14 -93 3 -172 7 -174 9 -2 2 45 4 105
5 60 0 129 4 154 8 67 12 -204 13 -307 1 -66 -7 -90 -15 -124 -39 -23 -17 -52
-31 -64 -31 -15 0 -55 36 -126 112 -202 216 -264 278 -281 278 -10 0 -18 -4
-18 -9z m621 -335 c-6 -7 -8 -22 -5 -32 6 -16 3 -15 -19 5 -30 27 -27 41 10
41 20 0 23 -3 14 -14z m36 -101 c41 -41 78 -75 83 -75 16 0 70 -51 70 -66 0
-18 -49 -39 -115 -49 -39 -6 -46 -9 -30 -16 17 -7 16 -8 -8 -8 -16 -1 -26 3
-22 9 8 13 -47 13 -116 0 -47 -9 -328 -40 -399 -44 -37 -2 -31 19 15 50 22 14
72 48 110 74 39 26 88 59 110 74 22 14 72 48 110 76 39 27 81 50 94 50 16 0
46 -23 98 -75z m113 -55 c0 -5 -4 -10 -10 -10 -5 0 -10 5 -10 10 0 6 5 10 10
10 6 0 10 -4 10 -10z m-287 -177 c-7 -2 -21 -2 -30 0 -10 3 -4 5 12 5 17 0 24
-2 18 -5z m-393 -123 c14 -11 33 -20 42 -20 10 0 41 -11 70 -24 29 -13 78 -32
108 -41 80 -26 161 -65 167 -82 7 -17 -81 -306 -94 -310 -13 -5 -105 111 -161
200 -24 38 -59 89 -79 115 -20 26 -44 66 -54 88 -9 23 -22 45 -28 48 -12 8
-15 46 -3 46 4 0 18 -9 32 -20z m407 -712 c-3 -8 -6 -5 -6 6 -1 11 2 17 5 13
3 -3 4 -12 1 -19z m83 -119 c0 -6 -4 -7 -10 -4 -5 3 -10 11 -10 16 0 6 5 7 10
4 6 -3 10 -11 10 -16z m77 -121 c-3 -8 -6 -5 -6 6 -1 11 2 17 5 13 3 -3 4 -12
1 -19z m63 -84 c0 -8 -4 -12 -10 -9 -5 3 -10 13 -10 21 0 8 5 12 10 9 6 -3 10
-13 10 -21z"/>
<path d="M2203 3315 c0 -27 2 -38 4 -22 2 15 2 37 0 50 -2 12 -4 0 -4 -28z"/>
<path d="M3182 3323 c-20 -22 -87 -91 -147 -154 -61 -63 -117 -122 -125 -133
-13 -16 -13 -18 2 -15 19 5 328 305 328 319 0 25 -25 18 -58 -17z"/>
<path d="M2190 3050 c-13 -8 -12 -10 3 -10 9 0 17 5 17 10 0 12 -1 12 -20 0z"/>
<path d="M2548 3033 c7 -3 16 -2 19 1 4 3 -2 6 -13 5 -11 0 -14 -3 -6 -6z"/>
<path d="M2698 3022 c-1 -4 -24 -20 -50 -35 l-47 -27 2 27 2 28 -175 -4 c-117
-2 -178 -7 -183 -15 -4 -6 -6 -33 -5 -61 l3 -49 61 -22 c54 -19 65 -20 85 -8
13 7 31 16 39 20 8 4 29 18 47 32 18 13 39 22 48 20 12 -2 3 -13 -29 -35 -26
-18 -50 -33 -55 -33 -4 0 -16 -9 -26 -20 -16 -18 -17 -23 -4 -47 8 -14 31 -39
52 -54 21 -15 33 -30 27 -34 -19 -12 -10 -22 16 -17 20 4 25 1 22 -9 -3 -8
-15 -14 -27 -13 -29 1 -21 -18 12 -27 19 -5 30 -2 43 12 14 16 31 19 106 19
57 0 87 4 83 10 -8 13 135 13 155 0 10 -7 -6 -10 -54 -10 -38 0 -67 -2 -65 -4
2 -2 76 -11 164 -21 88 -9 170 -18 183 -21 39 -8 24 -31 -30 -48 -87 -28 -108
-38 -101 -49 4 -6 0 -8 -9 -4 -28 10 -120 -19 -213 -67 -49 -25 -101 -46 -114
-46 -19 0 -21 -3 -12 -14 9 -11 9 -15 -1 -20 -7 -3 -3 -3 9 -1 30 8 39 -12 16
-37 -18 -21 -18 -21 5 -9 31 16 28 7 -10 -28 -34 -32 -60 -43 -38 -16 7 9 10
18 7 21 -3 3 -29 -19 -59 -48 -56 -56 -88 -76 -88 -56 0 9 -4 8 -12 -1 -11
-10 -10 -15 5 -25 22 -17 21 -22 -2 -52 -16 -20 -18 -30 -9 -60 11 -41 2 -57
-16 -31 -7 9 -19 17 -26 17 -9 0 -11 13 -7 48 l6 47 -14 -35 c-16 -42 -20
-103 -5 -80 8 12 10 11 10 -7 0 -16 6 -23 18 -23 19 0 29 -15 55 -85 9 -22 28
-67 43 -100 26 -55 29 -58 35 -35 6 22 7 23 8 4 1 -12 9 -28 18 -35 19 -16 20
-19 -13 60 -14 36 -19 41 -24 25 -10 -29 -53 72 -45 107 4 15 -2 48 -15 80
-28 76 -26 94 17 126 20 15 73 62 117 104 45 42 98 91 119 109 37 32 38 32 58
14 17 -16 22 -16 30 -4 8 12 10 10 6 -8 -9 -39 58 -176 73 -152 4 7 5 -8 3
-34 -6 -50 -65 -150 -165 -280 -29 -38 -61 -86 -72 -105 l-19 -36 23 20 23 20
-18 -34 c-13 -26 -19 -31 -26 -20 -7 11 -9 9 -9 -7 0 -11 -18 -48 -41 -83 -22
-34 -38 -65 -35 -68 3 -3 13 9 23 27 10 18 34 52 53 75 87 107 99 124 113 157
8 19 26 53 41 77 15 23 24 46 21 51 -3 5 0 12 6 16 8 5 10 2 5 -7 -4 -8 11 6
34 31 23 25 52 66 65 91 13 25 39 66 57 90 18 24 46 64 63 88 16 24 39 48 51
53 12 6 26 26 33 47 10 35 99 193 120 214 33 33 -17 89 -153 172 -94 58 -229
157 -248 182 -12 17 -138 83 -157 83 -5 0 -11 -4 -13 -8z m-128 -35 c0 -11
-41 -37 -155 -103 -39 -22 -43 -23 -90 -9 -27 9 -53 21 -57 28 -11 17 -10 71
2 83 14 14 300 15 300 1z m197 -15 c-19 -4 11 -28 121 -99 24 -16 87 -59 140
-96 53 -38 109 -71 125 -74 18 -4 27 -12 27 -24 0 -23 -2 -23 -121 -4 -52 9
-121 20 -154 25 -97 15 -293 23 -275 11 11 -8 5 -11 -29 -11 -33 0 -42 3 -38
14 4 10 -8 15 -44 20 -35 5 -56 14 -74 34 -39 41 -33 67 19 91 24 10 79 42
121 70 73 48 80 51 139 49 33 -1 53 -4 43 -6z m-200 -28 c-3 -3 -12 -4 -19 -1
-8 3 -5 6 6 6 11 1 17 -2 13 -5z m-30 -230 c-3 -3 -12 -4 -19 -1 -8 3 -5 6 6
6 11 1 17 -2 13 -5z m663 -148 c0 -31 -41 -104 -94 -171 -31 -38 -54 -76 -51
-83 3 -7 1 -11 -4 -8 -5 4 -25 -16 -45 -44 -20 -27 -42 -50 -50 -50 -13 0
-116 194 -116 219 0 14 51 37 176 80 49 17 107 39 129 50 48 24 55 25 55 7z
m-380 -141 c0 -18 -4 -23 -16 -18 -10 4 -22 -1 -30 -11 -13 -19 -34 -14 -34 8
0 17 39 45 63 45 12 1 17 -7 17 -24z m-210 -166 c0 -14 -92 -101 -99 -94 -4 5
88 105 96 105 2 0 3 -5 3 -11z m358 -91 c-2 -6 -10 -14 -16 -16 -7 -2 -10 2
-6 12 7 18 28 22 22 4z m-469 -185 c0 -25 -1 -25 -8 -8 -5 11 -7 23 -4 28 8
14 13 7 12 -20z m243 -155 c-7 -7 -12 -8 -12 -2 0 14 12 26 19 19 2 -3 -1 -11
-7 -17z"/>
<path d="M892 2889 c5 -16 136 -86 176 -94 50 -10 41 17 -17 49 -44 24 -132
56 -154 56 -5 0 -7 -5 -5 -11z"/>
<path d="M3435 2872 c-72 -32 -85 -40 -85 -53 0 -5 6 -9 13 -9 20 0 187 72
187 81 0 17 -55 7 -115 -19z"/>
<path d="M2152 2847 c-11 -13 -6 -15 45 -10 76 7 149 -23 198 -80 20 -23 35
-34 35 -26 0 16 -46 63 -97 98 -43 29 -162 41 -181 18z"/>
<path d="M2069 2792 c-49 -50 -71 -96 -67 -140 3 -33 6 -37 33 -39 28 -2 28
-2 7 7 -12 5 -25 16 -28 24 -9 22 44 118 84 153 21 18 30 32 22 32 -8 0 -31
-17 -51 -37z"/>
<path d="M2437 2678 c5 -32 3 -37 -23 -46 -25 -9 -26 -11 -7 -11 23 -1 53 23
53 42 0 7 -7 20 -15 31 -13 17 -14 16 -8 -16z"/>
<path d="M1904 2648 c-4 -6 4 -19 17 -29 24 -19 33 -22 82 -33 32 -7 36 -32 6
-41 -11 -4 -18 -9 -16 -11 8 -8 78 29 74 39 -2 6 -23 15 -48 21 -24 7 -53 17
-64 24 -18 10 -18 11 -2 12 9 0 17 5 17 12 0 6 -3 9 -6 5 -3 -3 -17 -2 -30 3
-15 6 -26 5 -30 -2z"/>
<path d="M2432 2599 c-35 -13 -98 -22 -181 -28 -70 -4 -136 -14 -147 -20 -17
-11 -17 -12 6 -6 14 3 84 10 155 15 137 10 188 20 220 45 26 19 12 17 -53 -6z"/>
<path d="M2140 2600 c14 -4 45 -8 70 -8 25 0 56 4 70 8 16 5 -8 8 -70 8 -62 0
-86 -3 -70 -8z"/>
<path d="M2026 2525 c-22 -17 -61 -20 -51 -5 9 15 -3 12 -44 -9 -20 -11 -45
-22 -55 -25 -14 -5 -16 -10 -8 -18 8 -8 32 -4 89 17 43 15 89 33 103 41 22 12
23 13 5 13 -11 0 -29 -6 -39 -14z"/>
<path d="M2565 2382 c-25 -14 -53 -17 -170 -15 -82 2 -134 -1 -126 -6 22 -14
-5 -23 -49 -16 -22 4 -47 2 -57 -4 -10 -6 -14 -11 -8 -11 145 -4 244 -5 222
-2 -15 2 -25 6 -23 10 2 4 51 4 108 1 101 -6 147 -1 98 12 -23 5 -21 7 18 18
23 6 42 16 42 21 0 15 -21 11 -55 -8z"/>
<path d="M2148 2373 c17 -2 47 -2 65 0 17 2 3 4 -33 4 -36 0 -50 -2 -32 -4z"/>
<path d="M3290 2351 c-51 -14 11 -21 191 -21 167 0 222 9 148 24 -42 8 -307 6
-339 -3z"/>
<path d="M2440 2323 c1 -16 25 -40 36 -36 7 2 10 -6 7 -24 -5 -36 11 -11 21
31 6 25 5 28 -7 18 -11 -10 -17 -9 -27 3 -13 16 -30 20 -30 8z"/>
<path d="M2110 2300 c0 -5 5 -10 10 -10 6 0 10 5 10 10 0 6 -4 10 -10 10 -5 0
-10 -4 -10 -10z"/>
<path d="M2071 2282 c-6 -12 -11 -29 -10 -39 0 -11 6 -6 15 16 16 37 12 55 -5
23z"/>
<path d="M2146 2277 c3 -10 9 -15 12 -12 3 3 0 11 -7 18 -10 9 -11 8 -5 -6z"/>
<path d="M2101 2264 c0 -11 3 -14 6 -6 3 7 2 16 -1 19 -3 4 -6 -2 -5 -13z"/>
<path d="M2190 2260 c0 -10 28 -59 40 -70 3 -3 21 -35 40 -72 19 -38 37 -68
41 -68 7 0 -25 65 -83 168 -29 52 -38 61 -38 42z"/>
<path d="M2452 2250 c0 -14 2 -19 5 -12 2 6 2 18 0 25 -3 6 -5 1 -5 -13z"/>
<path d="M1780 2231 c0 -12 -4 -20 -9 -16 -12 7 -4 -21 37 -130 77 -208 107
-279 110 -260 4 19 19 35 35 35 4 0 7 -17 7 -37 l1 -38 20 55 c54 148 99 297
99 325 0 4 -7 1 -16 -6 -15 -12 -16 -10 -10 21 l6 35 -15 -30 c-17 -35 -19
-59 -5 -50 6 4 10 -7 10 -27 -1 -30 -2 -31 -14 -15 -14 18 -14 18 -78 -191 -7
-22 -15 -32 -24 -28 -8 3 -14 1 -14 -5 0 -6 -5 -7 -11 -3 -6 3 -9 19 -5 35 3
18 -3 50 -16 86 -20 50 -23 54 -28 33 l-6 -25 -7 25 c-3 13 -2 27 3 30 6 4 -2
43 -20 95 -32 94 -50 126 -50 86z m231 -260 c-5 -14 -13 -41 -16 -60 -5 -20
-10 -29 -15 -22 -8 13 -2 60 10 76 4 6 11 28 16 50 7 37 8 38 12 11 2 -15 -1
-40 -7 -55z"/>
<path d="M2160 2243 c0 -5 7 -18 15 -29 12 -16 14 -16 15 -3 0 9 -7 22 -15 29
-8 7 -15 8 -15 3z"/>
<path d="M2091 2233 c-1 -6 -4 -20 -7 -30 -5 -17 -5 -17 6 0 6 10 9 23 6 30
-3 9 -5 9 -5 0z"/>
<path d="M2441 2204 c0 -11 3 -14 6 -6 3 7 2 16 -1 19 -3 4 -6 -2 -5 -13z"/>
<path d="M2190 2181 c0 -5 5 -13 10 -16 6 -3 10 -2 10 4 0 5 -4 13 -10 16 -5
3 -10 2 -10 -4z"/>
<path d="M2240 2095 c37 -69 60 -103 60 -92 0 13 -61 121 -78 137 -8 8 0 -12
18 -45z"/>
<path d="M2320 2032 c0 -5 7 -23 16 -40 8 -18 13 -42 10 -54 -3 -13 -3 -17 0
-10 3 6 17 12 30 12 17 0 24 6 24 19 0 14 -5 18 -18 14 -14 -3 -22 4 -32 26
-13 31 -30 50 -30 33z"/>
<path d="M2305 1980 c3 -5 8 -10 11 -10 2 0 4 5 4 10 0 6 -5 10 -11 10 -5 0
-7 -4 -4 -10z"/>
<path d="M2407 1924 c-4 -4 -7 -19 -6 -33 l0 -26 10 24 c10 26 8 47 -4 35z"/>
<path d="M2342 1797 c-7 -56 -15 -113 -18 -127 -6 -24 -6 -25 9 -5 16 19 16
19 17 -15 1 -29 3 -31 10 -15 13 30 12 78 -1 69 -11 -6 -9 27 7 134 3 24 2 48
-3 53 -5 5 -14 -33 -21 -94z"/>
<path d="M985 1846 c-81 -32 -108 -63 -53 -59 34 2 178 69 178 82 0 18 -41 11
-125 -23z"/>
<path d="M3360 1874 c0 -9 147 -74 169 -74 39 0 21 16 -54 48 -68 30 -115 40
-115 26z"/>
<path d="M1926 1770 c3 -19 13 -48 22 -65 8 -16 25 -61 37 -100 13 -38 35 -99
50 -135 55 -130 66 -163 52 -172 -9 -6 -8 -11 6 -19 9 -5 17 -17 17 -24 0 -8
5 -15 10 -15 6 0 10 7 10 15 0 8 -4 15 -10 15 -5 0 -10 15 -10 34 0 18 -7 47
-15 62 -17 33 -20 64 -5 64 5 0 6 8 3 17 -6 15 -7 14 -14 -3 -7 -19 -7 -19
-14 1 -5 11 -14 35 -21 54 -16 40 -18 65 -4 56 6 -3 10 -17 10 -29 0 -13 8
-30 17 -37 15 -13 16 -11 9 11 -4 14 -11 41 -16 60 -9 39 -36 97 -51 105 -11
8 -12 -18 0 -30 14 -16 23 -65 11 -65 -5 0 -13 12 -16 28 -4 15 -10 32 -14 37
-5 6 -10 21 -12 34 -5 40 31 35 92 -13 30 -23 90 -64 132 -90 66 -41 77 -52
81 -79 l4 -32 1 32 c2 24 -4 37 -23 50 -14 10 -53 39 -87 65 -33 26 -75 57
-94 69 -19 11 -34 25 -34 30 0 16 26 9 46 -12 10 -12 32 -28 49 -36 35 -18 25
-5 -25 31 -50 36 -111 68 -117 62 -3 -3 7 -10 22 -16 41 -16 27 -19 -27 -7
-32 8 -48 17 -48 27 0 9 -7 25 -15 36 -15 18 -16 17 -9 -16z"/>
<path d="M2570 1743 c0 -4 5 -15 10 -23 8 -13 10 -13 10 2 0 9 -4 20 -10 23
-5 3 -10 3 -10 -2z"/>
<path d="M2837 1715 c21 -36 366 -375 383 -375 20 0 -48 83 -153 186 -163 161
-257 239 -230 189z"/>
<path d="M1401 1538 c-95 -95 -168 -174 -162 -176 23 -8 90 52 271 241 74 77
98 107 84 107 -12 0 -88 -68 -193 -172z"/>
<path d="M2591 1676 c0 -11 -13 -39 -27 -64 -15 -25 -21 -42 -15 -38 18 12 53
86 48 104 -4 14 -5 14 -6 -2z"/>
<path d="M4016 1659 c-60 -47 -73 -129 -31 -191 61 -90 152 -101 226 -27 35
35 39 44 39 89 0 90 -47 150 -118 150 -21 0 -24 -2 -12 -10 12 -8 10 -10 -8
-10 -13 0 -20 4 -17 10 12 19 -52 10 -79 -11z m139 -33 c40 -17 55 -42 55 -91
0 -47 -13 -71 -50 -90 -39 -20 -69 -19 -106 4 -46 28 -61 80 -37 128 28 59 74
75 138 49z m-168 -98 c-3 -8 -6 -5 -6 6 -1 11 2 17 5 13 3 -3 4 -12 1 -19z"/>
<path d="M2222 1596 c15 -14 30 -26 34 -26 11 0 -18 31 -40 42 -16 8 -15 4 6
-16z"/>
<path d="M2341 1594 c0 -11 3 -14 6 -6 3 7 2 16 -1 19 -3 4 -6 -2 -5 -13z"/>
<path d="M2307 1580 c-3 -11 -2 -20 3 -20 12 0 21 28 11 35 -5 2 -11 -4 -14
-15z"/>
<path d="M2565 1559 c-4 -6 -5 -12 -2 -15 2 -3 7 2 10 11 7 17 1 20 -8 4z"/>
<path d="M2327 1530 c-4 -14 -6 -36 -6 -50 1 -22 2 -20 10 8 6 19 9 41 7 50
-3 12 -6 10 -11 -8z"/>
<path d="M2525 1507 c-23 -25 -47 -68 -42 -73 2 -2 18 17 36 42 35 48 38 69 6
31z"/>
<path d="M2485 1494 c-9 -14 -14 -28 -12 -31 3 -3 13 9 22 26 19 38 14 41 -10
5z"/>
<path d="M2302 1405 c-7 -27 -18 -66 -24 -86 -6 -20 -8 -43 -6 -50 7 -22 50
124 46 157 -3 26 -5 23 -16 -21z"/>
<path d="M2456 1403 c-6 -14 -5 -15 5 -6 7 7 10 15 7 18 -3 3 -9 -2 -12 -12z"/>
<path d="M2256 1349 c-8 -42 0 -50 9 -9 4 17 5 34 2 36 -2 3 -7 -10 -11 -27z"/>
<path d="M2023 1355 c-10 -10 -10 -15 0 -23 9 -8 12 -4 13 14 1 13 1 24 0 24
0 -1 -6 -7 -13 -15z"/>
<path d="M2400 1329 c0 -5 5 -7 10 -4 6 3 10 8 10 11 0 2 -4 4 -10 4 -5 0 -10
-5 -10 -11z"/>
<path d="M2370 1280 c-12 -16 -18 -30 -13 -30 5 0 17 14 26 30 10 17 16 30 13
30 -2 0 -14 -13 -26 -30z"/>
<path d="M2235 1260 c-4 -23 -5 -43 -2 -46 2 -3 7 14 11 37 4 23 5 44 2 46 -2
2 -7 -14 -11 -37z"/>
<path d="M3472 1235 c-32 -30 -52 -55 -47 -55 6 0 35 25 65 55 71 71 55 72
-18 0z"/>
<path d="M2690 1235 c0 -2 11 -30 25 -61 14 -31 25 -65 25 -75 0 -18 13 -32
22 -23 6 6 -26 113 -42 144 -9 18 -30 28 -30 15z"/>
<path d="M2275 1210 c-3 -5 -1 -10 4 -10 6 0 11 5 11 10 0 6 -2 10 -4 10 -3 0
-8 -4 -11 -10z"/>
<path d="M1733 1163 c-11 -27 -23 -59 -27 -73 -7 -24 -7 -25 9 -5 18 21 55
100 55 116 0 23 -18 4 -37 -38z"/>
<path d="M3349 1153 l-34 -38 38 34 c20 19 37 36 37 38 0 8 -8 0 -41 -34z"/>
<path d="M3329 1093 c-13 -16 -12 -17 4 -4 16 13 21 21 13 21 -2 0 -10 -8 -17
-17z"/>
<path d="M3885 1100 c-3 -5 1 -10 9 -10 8 0 18 5 21 10 3 6 -1 10 -9 10 -8 0
-18 -4 -21 -10z"/>
<path d="M3942 1094 c9 -9 21 -13 27 -9 16 10 3 25 -22 25 -20 0 -20 -1 -5
-16z"/>
<path d="M2241 1074 c0 -11 3 -14 6 -6 3 7 2 16 -1 19 -3 4 -6 -2 -5 -13z"/>
<path d="M3250 1039 c-25 -17 -56 -42 -70 -56 -16 -17 -2 -10 37 17 54 37 94
71 82 70 -2 0 -24 -14 -49 -31z"/>
<path d="M3215 1050 c-3 -5 -1 -10 4 -10 6 0 11 5 11 10 0 6 -2 10 -4 10 -3 0
-8 -4 -11 -10z"/>
<path d="M2231 1024 c0 -11 3 -14 6 -6 3 7 2 16 -1 19 -3 4 -6 -2 -5 -13z"/>
<path d="M3125 950 c-3 -6 1 -7 9 -4 18 7 21 14 7 14 -6 0 -13 -4 -16 -10z"/>
<path d="M3075 920 c-3 -5 -2 -10 4 -10 5 0 13 5 16 10 3 6 2 10 -4 10 -5 0
-13 -4 -16 -10z"/>
<path d="M2990 910 c-9 -6 -10 -10 -3 -10 6 0 15 5 18 10 8 12 4 12 -15 0z"/>
<path d="M2950 890 c-9 -6 -10 -10 -3 -10 6 0 15 5 18 10 8 12 4 12 -15 0z"/>
<path d="M3025 890 c-3 -6 1 -7 9 -4 18 7 21 14 7 14 -6 0 -13 -4 -16 -10z"/>
<path d="M1060 873 c0 -8 122 -123 217 -207 125 -108 237 -179 443 -281 184
-91 316 -134 555 -180 86 -16 219 -21 197 -6 -8 5 64 11 170 14 284 10 297 25
22 26 -225 1 -416 17 -477 40 -16 6 -40 11 -55 11 -15 0 -99 24 -188 54 -207
70 -455 201 -560 297 -23 20 -55 44 -71 52 -37 20 -57 43 -44 51 5 4 36 -2 69
-13 32 -11 85 -25 118 -30 32 -6 97 -19 144 -30 144 -34 361 -47 582 -34 106
6 204 16 218 22 22 10 19 11 -22 7 -68 -5 -69 7 -1 21 129 26 289 71 281 78
-2 2 -35 -5 -73 -15 -351 -96 -657 -104 -1048 -26 -84 17 -280 81 -391 127
-71 30 -86 34 -86 22z m1188 -220 c-16 -2 -40 -2 -55 0 -16 2 -3 4 27 4 30 0
43 -2 28 -4z m-248 -353 c0 -13 -11 -13 -30 0 -12 8 -11 10 8 10 12 0 22 -4
22 -10z m103 -27 c-7 -2 -21 -2 -30 0 -10 3 -4 5 12 5 17 0 24 -2 18 -5z m150
-28 c20 -8 61 -15 92 -15 30 0 55 -4 55 -10 0 -5 -13 -10 -29 -10 -30 0 -243
39 -250 46 -12 11 102 2 132 -11z"/>
<path d="M2990 870 c-9 -6 -10 -10 -3 -10 6 0 15 5 18 10 8 12 4 12 -15 0z"/>
<path d="M2782 778 c-24 -11 -42 -21 -39 -24 4 -5 97 34 97 41 0 8 -13 4 -58
-17z"/>
<path d="M2685 780 c-13 -6 -15 -9 -5 -9 8 0 22 4 30 9 18 12 2 12 -25 0z"/>
<path d="M3453 770 c-61 -13 -113 -43 -158 -91 l-40 -43 43 35 c24 19 58 41
75 50 40 21 102 35 94 22 -4 -6 34 -13 94 -17 55 -3 110 -11 121 -17 11 -6 22
-8 25 -6 2 3 -17 15 -42 26 -33 14 -70 21 -119 22 -62 1 -66 2 -36 10 36 9 99
4 135 -10 11 -5 37 -16 59 -25 40 -17 56 -17 34 1 -44 36 -205 60 -285 43z"/>
<path d="M2675 740 l-20 -9 20 0 c11 0 29 4 40 9 l20 9 -20 0 c-11 0 -29 -4
-40 -9z"/>
<path d="M2580 710 c-13 -9 -13 -10 0 -9 8 0 24 4 35 9 l20 9 -20 0 c-11 0
-27 -4 -35 -9z"/>
<path d="M3385 710 c-8 -13 5 -13 25 0 13 8 13 10 -2 10 -9 0 -20 -4 -23 -10z"/>
<path d="M2488 683 c6 -2 18 -2 25 0 6 3 1 5 -13 5 -14 0 -19 -2 -12 -5z"/>
<path d="M2448 673 c7 -3 16 -2 19 1 4 3 -2 6 -13 5 -11 0 -14 -3 -6 -6z"/>
<path d="M3208 554 c-16 -36 -24 -76 -28 -149 l-5 -100 -60 -15 c-33 -9 -67
-19 -75 -23 -19 -8 52 1 110 15 l45 11 0 106 c1 91 4 114 23 150 13 24 21 46
18 49 -3 3 -16 -17 -28 -44z"/>
<path d="M3256 575 c-9 -26 -7 -32 5 -12 6 10 9 21 6 23 -2 3 -7 -2 -11 -11z"/>
<path d="M3489 383 c-13 -15 -12 -15 11 -3 34 17 36 20 18 20 -9 0 -22 -7 -29
-17z"/>
<path d="M3260 325 c-14 -8 -20 -14 -14 -15 5 0 19 7 30 15 24 18 16 19 -16 0z"/>
<path d="M3150 257 c-23 -7 -29 -12 -18 -14 9 -2 29 3 45 11 32 18 23 19 -27
3z"/>
<path d="M2935 250 l-30 -8 35 0 c19 0 44 3 55 8 18 8 18 9 -5 8 -14 0 -38 -4
-55 -8z"/>
<path d="M3088 233 c7 -3 16 -2 19 1 4 3 -2 6 -13 5 -11 0 -14 -3 -6 -6z"/>
<path d="M3010 220 c-11 -7 -5 -8 20 -4 43 8 51 14 19 14 -13 0 -31 -5 -39
-10z"/>
<path d="M2865 200 l-50 -7 45 -1 c25 0 63 3 85 7 l40 9 -35 -1 c-19 0 -57 -3
-85 -7z"/>
</g>
</svg>
